<?xml version="1.0" encoding="UTF-8" standalone="no"?>
<!DOCTYPE svg PUBLIC "-//W3C//DTD SVG 1.0//EN" "http://www.w3.org/TR/2001/PR-SVG-20010719/DTD/svg10.dtd">
<svg width="27cm" height="12cm" viewBox="578 63 523 238" xmlns="http://www.w3.org/2000/svg" xmlns:xlink="http://www.w3.org/1999/xlink">
  <g>
    <rect style="fill: #ffffff" x="900" y="100" width="200" height="200"/>
    <rect style="fill: none; fill-opacity:0; stroke-width: 2; stroke: #000000" x="900" y="100" width="200" height="200"/>
    <text font-size="12.7998" style="fill: #000000;text-anchor:middle;font-family:sans-serif;font-style:normal;font-weight:normal" x="1000" y="203.9">
      <tspan x="1000" y="203.9"></tspan>
    </text>
  </g>
  <g>
    <rect style="fill: #ffffff" x="580" y="100" width="200" height="200"/>
    <rect style="fill: none; fill-opacity:0; stroke-width: 2; stroke: #000000" x="580" y="100" width="200" height="200"/>
    <text font-size="12.7998" style="fill: #000000;text-anchor:middle;font-family:sans-serif;font-style:normal;font-weight:normal" x="680" y="203.9">
      <tspan x="680" y="203.9"></tspan>
    </text>
  </g>
  <g>
    <path style="fill: #90ee90" d="M 800 170 C 816,162.5 824,160 840,160 C 856,160 864,162.5 880,170 L 880,210 C 864,217.5 856,220 840,220 C 824,220 816,217.5 800,210 L 800,170z"/>
    <path style="fill: none; fill-opacity:0; stroke-width: 2; stroke: #000000" d="M 800 170 C 816,162.5 824,160 840,160 C 856,160 864,162.5 880,170 L 880,210 C 864,217.5 856,220 840,220 C 824,220 816,217.5 800,210 L 800,170"/>
    <path style="fill: none; fill-opacity:0; stroke-width: 2; stroke: #000000" d="M 800 170 C 816,177.5 824,180 840,180 C 856,180 864,177.5 880,170"/>
    <text font-size="12.8" style="fill: #000000;text-anchor:middle;font-family:sans-serif;font-style:normal;font-weight:normal" x="840" y="199">
      <tspan x="840" y="199">Discovery</tspan>
    </text>
  </g>
  <g>
    <rect style="fill: #afafff" x="600" y="120" width="160" height="40"/>
    <rect style="fill: none; fill-opacity:0; stroke-width: 2; stroke: #000000" x="600" y="120" width="160" height="40"/>
    <text font-size="12.8" style="fill: #000000;text-anchor:middle;font-family:sans-serif;font-style:normal;font-weight:normal" x="680" y="135.9">
      <tspan x="680" y="135.9">name: random_number</tspan>
      <tspan x="680" y="151.9">port: 2000</tspan>
    </text>
  </g>
  <g>
    <rect style="fill: #afafff" x="920" y="120" width="160" height="40"/>
    <rect style="fill: none; fill-opacity:0; stroke-width: 2; stroke: #000000" x="920" y="120" width="160" height="40"/>
    <text font-size="12.8" style="fill: #000000;text-anchor:middle;font-family:sans-serif;font-style:normal;font-weight:normal" x="1000" y="135.9">
      <tspan x="1000" y="135.9">name: random_number</tspan>
      <tspan x="1000" y="151.9">port: 2000</tspan>
    </text>
  </g>
  <text font-size="16.9333" style="fill: #000000;text-anchor:middle;font-family:sans-serif;font-style:normal;font-weight:700" x="680" y="80">
    <tspan x="680" y="80">host1.example.com</tspan>
  </text>
  <g>
    <rect style="fill: #ffb0af" x="600" y="180" width="160" height="40"/>
    <rect style="fill: none; fill-opacity:0; stroke-width: 2; stroke: #000000" x="600" y="180" width="160" height="40"/>
    <text font-size="12.8" style="fill: #000000;text-anchor:middle;font-family:sans-serif;font-style:normal;font-weight:normal" x="680" y="195.9">
      <tspan x="680" y="195.9">name: redis</tspan>
      <tspan x="680" y="211.9">port: 3000</tspan>
    </text>
  </g>
  <g>
    <line style="fill: none; fill-opacity:0; stroke-width: 2; stroke: #000000" x1="789.021" y1="198.186" x2="770.979" y2="199.314"/>
    <polygon style="fill: #000000" points="789.333,203.176 799.002,197.562 788.71,193.196 "/>
    <polygon style="fill: none; fill-opacity:0; stroke-width: 2; stroke: #000000" points="789.333,203.176 799.002,197.562 788.71,193.196 "/>
    <polygon style="fill: #000000" points="770.667,194.324 760.998,199.938 771.29,204.304 "/>
    <polygon style="fill: none; fill-opacity:0; stroke-width: 2; stroke: #000000" points="770.667,194.324 760.998,199.938 771.29,204.304 "/>
  </g>
  <g>
    <line style="fill: none; fill-opacity:0; stroke-width: 2; stroke: #000000" x1="887.308" y1="176.778" x2="912.692" y2="148.222"/>
    <polygon style="fill: #000000" points="883.571,173.457 880.664,184.253 891.045,180.1 "/>
    <polygon style="fill: none; fill-opacity:0; stroke-width: 2; stroke: #000000" points="883.571,173.457 880.664,184.253 891.045,180.1 "/>
    <polygon style="fill: #000000" points="916.429,151.543 919.336,140.747 908.955,144.9 "/>
    <polygon style="fill: none; fill-opacity:0; stroke-width: 2; stroke: #000000" points="916.429,151.543 919.336,140.747 908.955,144.9 "/>
  </g>
  <g>
    <line style="fill: none; fill-opacity:0; stroke-width: 2; stroke: #000000" x1="767.308" y1="148.222" x2="792.692" y2="176.778"/>
    <polygon style="fill: #000000" points="771.045,144.9 760.664,140.747 763.571,151.543 "/>
    <polygon style="fill: none; fill-opacity:0; stroke-width: 2; stroke: #000000" points="771.045,144.9 760.664,140.747 763.571,151.543 "/>
    <polygon style="fill: #000000" points="788.955,180.1 799.336,184.253 796.429,173.457 "/>
    <polygon style="fill: none; fill-opacity:0; stroke-width: 2; stroke: #000000" points="788.955,180.1 799.336,184.253 796.429,173.457 "/>
  </g>
  <text font-size="16.9333" style="fill: #000000;text-anchor:middle;font-family:sans-serif;font-style:normal;font-weight:700" x="1000" y="80">
    <tspan x="1000" y="80">host2.example.com</tspan>
  </text>
  <g>
    <rect style="fill: #ffafe4" x="600" y="240" width="160" height="40"/>
    <rect style="fill: none; fill-opacity:0; stroke-width: 2; stroke: #000000" x="600" y="240" width="160" height="40"/>
    <text font-size="12.8" style="fill: #000000;text-anchor:middle;font-family:sans-serif;font-style:normal;font-weight:normal" x="680" y="255.9">
      <tspan x="680" y="255.9">name: mysql</tspan>
      <tspan x="680" y="271.9">port: 4000</tspan>
    </text>
  </g>
  <g>
    <rect style="fill: #ffa500" x="920" y="240" width="160" height="40"/>
    <rect style="fill: none; fill-opacity:0; stroke-width: 2; stroke: #000000" x="920" y="240" width="160" height="40"/>
    <text font-size="12.8" style="fill: #000000;text-anchor:middle;font-family:sans-serif;font-style:normal;font-weight:normal" x="1000" y="255.9">
      <tspan x="1000" y="255.9">name: random_letter</tspan>
      <tspan x="1000" y="271.9">port: 4000</tspan>
    </text>
  </g>
  <g>
    <rect style="fill: #ffa500" x="920" y="180" width="160" height="40"/>
    <rect style="fill: none; fill-opacity:0; stroke-width: 2; stroke: #000000" x="920" y="180" width="160" height="40"/>
    <text font-size="12.8" style="fill: #000000;text-anchor:middle;font-family:sans-serif;font-style:normal;font-weight:normal" x="1000" y="195.9">
      <tspan x="1000" y="195.9">name: random_letter</tspan>
      <tspan x="1000" y="211.9">port: 3000</tspan>
    </text>
  </g>
  <g>
    <line style="fill: none; fill-opacity:0; stroke-width: 2; stroke: #000000" x1="766.872" y1="251.41" x2="793.128" y2="218.59"/>
    <polygon style="fill: #000000" points="762.967,248.287 760.625,259.219 770.776,254.534 "/>
    <polygon style="fill: none; fill-opacity:0; stroke-width: 2; stroke: #000000" points="762.967,248.287 760.625,259.219 770.776,254.534 "/>
    <polygon style="fill: #000000" points="797.033,221.713 799.375,210.781 789.224,215.466 "/>
    <polygon style="fill: none; fill-opacity:0; stroke-width: 2; stroke: #000000" points="797.033,221.713 799.375,210.781 789.224,215.466 "/>
  </g>
  <g>
    <line style="fill: none; fill-opacity:0; stroke-width: 2; stroke: #000000" x1="913.128" y1="251.41" x2="886.872" y2="218.59"/>
    <polygon style="fill: #000000" points="909.224,254.534 919.375,259.219 917.033,248.287 "/>
    <polygon style="fill: none; fill-opacity:0; stroke-width: 2; stroke: #000000" points="909.224,254.534 919.375,259.219 917.033,248.287 "/>
    <polygon style="fill: #000000" points="890.776,215.466 880.625,210.781 882.967,221.713 "/>
    <polygon style="fill: none; fill-opacity:0; stroke-width: 2; stroke: #000000" points="890.776,215.466 880.625,210.781 882.967,221.713 "/>
  </g>
  <g>
    <line style="fill: none; fill-opacity:0; stroke-width: 2; stroke: #000000" x1="909.021" y1="199.314" x2="890.979" y2="198.186"/>
    <polygon style="fill: #000000" points="908.71,204.304 919.002,199.938 909.333,194.324 "/>
    <polygon style="fill: none; fill-opacity:0; stroke-width: 2; stroke: #000000" points="908.71,204.304 919.002,199.938 909.333,194.324 "/>
    <polygon style="fill: #000000" points="891.29,193.196 880.998,197.562 890.667,203.176 "/>
    <polygon style="fill: none; fill-opacity:0; stroke-width: 2; stroke: #000000" points="891.29,193.196 880.998,197.562 890.667,203.176 "/>
  </g>
</svg>
